<mxfile host="app.diagrams.net" agent="Mozilla/5.0 (Windows NT 10.0; Win64; x64) AppleWebKit/537.36 (KHTML, like Gecko) Chrome/132.0.0.0 Safari/537.36" version="26.0.10">
  <diagram name="Página-1" id="iMWM0jhWLGfsQjjz7H58">
    <mxGraphModel dx="989" dy="532" grid="1" gridSize="10" guides="1" tooltips="1" connect="1" arrows="1" fold="1" page="1" pageScale="1" pageWidth="827" pageHeight="1169" math="0" shadow="0">
      <root>
        <mxCell id="0" />
        <mxCell id="1" parent="0" />
        <mxCell id="9dx36oG7KvzwsXGSGMjR-1" value="Inicio" style="ellipse;whiteSpace=wrap;html=1;" parent="1" vertex="1">
          <mxGeometry x="340" y="80" width="80" height="40" as="geometry" />
        </mxCell>
        <mxCell id="9dx36oG7KvzwsXGSGMjR-3" value="" style="endArrow=classic;html=1;rounded=0;exitX=0.5;exitY=1;exitDx=0;exitDy=0;" parent="1" source="9dx36oG7KvzwsXGSGMjR-1" target="9dx36oG7KvzwsXGSGMjR-4" edge="1">
          <mxGeometry width="50" height="50" relative="1" as="geometry">
            <mxPoint x="390" y="450" as="sourcePoint" />
            <mxPoint x="380" y="150" as="targetPoint" />
          </mxGeometry>
        </mxCell>
        <mxCell id="9dx36oG7KvzwsXGSGMjR-4" value="Registrarse en GitHub.com" style="rounded=0;whiteSpace=wrap;html=1;" parent="1" vertex="1">
          <mxGeometry x="330" y="140" width="100" height="30" as="geometry" />
        </mxCell>
        <mxCell id="9dx36oG7KvzwsXGSGMjR-5" value="" style="endArrow=classic;html=1;rounded=0;exitX=0.5;exitY=1;exitDx=0;exitDy=0;" parent="1" source="9dx36oG7KvzwsXGSGMjR-4" target="9dx36oG7KvzwsXGSGMjR-6" edge="1">
          <mxGeometry width="50" height="50" relative="1" as="geometry">
            <mxPoint x="330" y="290" as="sourcePoint" />
            <mxPoint x="380" y="190" as="targetPoint" />
          </mxGeometry>
        </mxCell>
        <mxCell id="9dx36oG7KvzwsXGSGMjR-6" value="Leer" style="shape=parallelogram;perimeter=parallelogramPerimeter;whiteSpace=wrap;html=1;fixedSize=1;size=10;" parent="1" vertex="1">
          <mxGeometry x="355" y="190" width="50" height="20" as="geometry" />
        </mxCell>
        <mxCell id="9dx36oG7KvzwsXGSGMjR-7" value="&quot;Introduzca su correo electrónico y contraseña en Github.&quot;" style="shape=document;whiteSpace=wrap;html=1;boundedLbl=1;size=0.16666666666666666;" parent="1" vertex="1">
          <mxGeometry x="310" y="230" width="140" height="60" as="geometry" />
        </mxCell>
        <mxCell id="9dx36oG7KvzwsXGSGMjR-8" value="" style="endArrow=classic;html=1;rounded=0;exitX=0.5;exitY=1;exitDx=0;exitDy=0;entryX=0.5;entryY=0;entryDx=0;entryDy=0;" parent="1" source="9dx36oG7KvzwsXGSGMjR-6" target="9dx36oG7KvzwsXGSGMjR-7" edge="1">
          <mxGeometry width="50" height="50" relative="1" as="geometry">
            <mxPoint x="430" y="300" as="sourcePoint" />
            <mxPoint x="480" y="250" as="targetPoint" />
          </mxGeometry>
        </mxCell>
        <mxCell id="9dx36oG7KvzwsXGSGMjR-9" value="" style="endArrow=classic;html=1;rounded=0;" parent="1" edge="1">
          <mxGeometry width="50" height="50" relative="1" as="geometry">
            <mxPoint x="380" y="284" as="sourcePoint" />
            <mxPoint x="379.71" y="310" as="targetPoint" />
          </mxGeometry>
        </mxCell>
        <mxCell id="9dx36oG7KvzwsXGSGMjR-10" value="Introducir usuario, contraseña" style="rounded=0;whiteSpace=wrap;html=1;" parent="1" vertex="1">
          <mxGeometry x="330" y="310" width="100" height="30" as="geometry" />
        </mxCell>
        <mxCell id="9dx36oG7KvzwsXGSGMjR-18" value="" style="edgeStyle=orthogonalEdgeStyle;rounded=0;orthogonalLoop=1;jettySize=auto;html=1;entryX=0.5;entryY=0;entryDx=0;entryDy=0;" parent="1" source="9dx36oG7KvzwsXGSGMjR-11" target="9dx36oG7KvzwsXGSGMjR-22" edge="1">
          <mxGeometry relative="1" as="geometry">
            <Array as="points">
              <mxPoint x="480" y="393" />
            </Array>
            <mxPoint x="479.9655172413793" y="439.9999999999999" as="targetPoint" />
          </mxGeometry>
        </mxCell>
        <mxCell id="9dx36oG7KvzwsXGSGMjR-11" value="¿Cuenta válida?" style="rhombus;whiteSpace=wrap;html=1;" parent="1" vertex="1">
          <mxGeometry x="345" y="358" width="70" height="70" as="geometry" />
        </mxCell>
        <mxCell id="9dx36oG7KvzwsXGSGMjR-12" value="" style="endArrow=classic;html=1;rounded=0;" parent="1" edge="1">
          <mxGeometry width="50" height="50" relative="1" as="geometry">
            <mxPoint x="379.71" y="340" as="sourcePoint" />
            <mxPoint x="379.71" y="360" as="targetPoint" />
            <Array as="points">
              <mxPoint x="379.71" y="350" />
            </Array>
          </mxGeometry>
        </mxCell>
        <mxCell id="9dx36oG7KvzwsXGSGMjR-13" value="" style="endArrow=classic;html=1;rounded=0;exitX=0;exitY=0.5;exitDx=0;exitDy=0;" parent="1" source="9dx36oG7KvzwsXGSGMjR-11" edge="1">
          <mxGeometry width="50" height="50" relative="1" as="geometry">
            <mxPoint x="260" y="460" as="sourcePoint" />
            <mxPoint x="280" y="420" as="targetPoint" />
            <Array as="points">
              <mxPoint x="280" y="393" />
              <mxPoint x="280" y="410" />
            </Array>
          </mxGeometry>
        </mxCell>
        <mxCell id="9dx36oG7KvzwsXGSGMjR-22" value="&quot;Correo electrónico o contraseña inválidos, inténtalo de nuevo.&quot;" style="shape=document;whiteSpace=wrap;html=1;boundedLbl=1;size=0.3333333333333333;" parent="1" vertex="1">
          <mxGeometry x="420" y="420" width="120" height="60" as="geometry" />
        </mxCell>
        <mxCell id="9dx36oG7KvzwsXGSGMjR-23" value="Fin" style="ellipse;whiteSpace=wrap;html=1;" parent="1" vertex="1">
          <mxGeometry x="260" y="420" width="40" height="20" as="geometry" />
        </mxCell>
        <mxCell id="9dx36oG7KvzwsXGSGMjR-25" value="" style="endArrow=classic;html=1;rounded=0;entryX=1;entryY=0.5;entryDx=0;entryDy=0;exitX=0.505;exitY=0.811;exitDx=0;exitDy=0;exitPerimeter=0;" parent="1" target="9dx36oG7KvzwsXGSGMjR-6" edge="1" source="9dx36oG7KvzwsXGSGMjR-22">
          <mxGeometry width="50" height="50" relative="1" as="geometry">
            <mxPoint x="480" y="490" as="sourcePoint" />
            <mxPoint x="560" y="170" as="targetPoint" />
            <Array as="points">
              <mxPoint x="480" y="490" />
              <mxPoint x="560" y="490" />
              <mxPoint x="560" y="200" />
            </Array>
          </mxGeometry>
        </mxCell>
        <mxCell id="AVr0xcuJP-2E8jtwMpu4-2" value="Si" style="text;html=1;align=center;verticalAlign=middle;resizable=0;points=[];autosize=1;strokeColor=none;fillColor=none;" vertex="1" parent="1">
          <mxGeometry x="265" y="370" width="30" height="30" as="geometry" />
        </mxCell>
        <mxCell id="AVr0xcuJP-2E8jtwMpu4-3" value="No" style="text;html=1;align=center;verticalAlign=middle;resizable=0;points=[];autosize=1;strokeColor=none;fillColor=none;" vertex="1" parent="1">
          <mxGeometry x="460" y="370" width="40" height="30" as="geometry" />
        </mxCell>
      </root>
    </mxGraphModel>
  </diagram>
</mxfile>
